<svg width="26" height="18" viewBox="0 0 26 18" fill="none" xmlns="http://www.w3.org/2000/svg">
<path d="M22 -1.74846e-07C24.2091 -7.8281e-08 26 1.79086 26 4L26 14C26 16.2091 24.2091 18 22 18L4 18C1.79086 18 -7.08524e-07 16.2091 -6.1196e-07 14L-1.74846e-07 4C-7.8281e-08 1.79086 1.79086 -1.05822e-06 4 -9.61651e-07L22 -1.74846e-07Z" fill="#003E54"/>
<path d="M18 -1.74846e-07C20.2091 -7.8281e-08 22 1.79086 22 4L22 14C22 16.2091 20.2091 18 18 18L4 18C1.79086 18 -7.08524e-07 16.2091 -6.1196e-07 14L-1.74846e-07 4C-7.8281e-08 1.79086 1.79086 -8.8337e-07 4 -7.86805e-07L18 -1.74846e-07Z" fill="#00506C"/>
<circle cx="16" cy="9" r="2" fill="#99B9C4"/>
</svg>
