<svg width="24" height="24" viewBox="0 0 24 24" fill="none" xmlns="http://www.w3.org/2000/svg">
<rect width="24" height="24" rx="8" fill="#00506C"/>
<path fill-rule="evenodd" clip-rule="evenodd" d="M13.7281 8.15436C15.2672 9.6935 15.2672 12.1889 13.7281 13.7281C12.1889 15.2672 9.6935 15.2672 8.15436 13.7281C6.61521 12.1889 6.61521 9.6935 8.15436 8.15436C9.6935 6.61521 12.1889 6.61521 13.7281 8.15436ZM15.7899 14.3763C17.4375 12.0566 17.2216 8.81946 15.1423 6.74014C12.8221 4.41995 9.06034 4.41995 6.74014 6.74014C4.41995 9.06034 4.41995 12.8221 6.74014 15.1423C8.81925 17.2214 12.0559 17.4374 14.3756 15.7904L17.5855 19.0004L18.9998 17.5861L15.7899 14.3763Z" fill="#99B9C4"/>
</svg>
