<svg id="ewNtfbjhvQr1" xmlns="http://www.w3.org/2000/svg" xmlns:xlink="http://www.w3.org/1999/xlink" viewBox="0 0 242.28 246.4" shape-rendering="geometricPrecision" text-rendering="geometricPrecision">
<style><![CDATA[
#ewNtfbjhvQr3 {animation-name: ewNtfbjhvQr3_f_p, ewNtfbjhvQr3_s_p, ewNtfbjhvQr3_s_do;animation-duration: 3000ms;animation-fill-mode: forwards;animation-timing-function: linear;animation-direction: normal;animation-iteration-count: 1;}@keyframes ewNtfbjhvQr3_f_p { 0% {fill: none} 16.666667% {fill: none} 100% {fill: #8e7b3e}}@keyframes ewNtfbjhvQr3_s_p { 0% {stroke: #8e7b3e} 16.666667% {stroke: #8e7b3e} 100% {stroke: none}}@keyframes ewNtfbjhvQr3_s_do { 0% {stroke-dashoffset: 2088.311805} 63.333333% {stroke-dashoffset: 0} 100% {stroke-dashoffset: 0}}
]]></style>
<g><path id="ewNtfbjhvQr3" d="M240.07,147.41h-51.29c-1.1,0-2.21.83-2.21,2.2v3.03c0,.83.55,1.93,1.66,2.2c11.03,3.31,12.41,7.17,12.41,20.4v44.94c-8.82,7.17-20.13,12.13-36.12,12.13-43.02,0-73.62-37.5-73.62-86.58c0-7.44.65-14.6,1.88-21.4l55.56,66.72c1.65,2.48,4.41,3.58,7.17,3.58c2.48,0,4.96-1.1,4.96-5.24v-130.17c.52-.01,1.04-.04,1.57-.04c29.23,0,47.42,25.92,56.52,47.42.28.83,1.1,1.38,2.2,1.38h2.48c1.1,0,1.65-.55,1.65-2.21-.28-1.38-3.03-27.85-4.41-40.81-.28-2.48-1.93-4.69-4.13-6.07-14.34-9.1-35.29-13.79-54.32-13.79-.53,0-1.04.03-1.57.03v-25.55c0-6.89,1.66-9.65,9.93-12.13c1.1-.28,1.65-1.38,1.65-2.21v-3.03c0-1.38-1.1-2.21-2.21-2.21h-36.12c-1.38,0-2.2.83-2.2,2.21v3.03c0,.83.55,1.93,1.38,2.21c8.55,2.48,9.93,5.24,10.2,12.13v26.95c-21.37,3.19-39.79,11.83-53.93,24.83L34.47,3.31C32.82,1.1,30.06,0,27.3,0L2.21,0C0.83,0,0,0.83,0,2.21v3.03c0,.83.55,1.93,1.38,2.21c8.55,2.48,9.93,5.24,10.2,12.13v153.58c-.28,6.89-1.66,9.93-10.2,12.41-.83.28-1.38,1.1-1.38,2.21v2.76c0,1.38.83,2.48,2.21,2.48h36.11c1.1,0,2.21-1.1,2.21-2.48v-2.76c0-1.1-.55-1.93-1.65-2.21-8.27-2.48-9.65-5.51-9.93-12.41v-125.46L69.84,96.8c-7.22,14.08-11.2,30.58-11.2,48.96c0,60.39,45.22,100.64,105.88,100.64c28.12,0,48.53-9.1,63.42-18.47c2.2-1.38,2.76-3.31,2.76-6.07v-54.87c.28-6.89,1.65-9.65,9.93-12.13c1.1-.28,1.66-1.38,1.66-2.2v-3.03c0-1.38-.83-2.2-2.21-2.2ZM143.1,61.79v76.63L105.19,91.27c9.02-14.44,21.97-24.88,37.91-29.48Z" fill="none" stroke="#8e7b3e" stroke-dashoffset="2088.311805" stroke-dasharray="2088.311805"/></g></svg>
