<?xml version="1.0" encoding="UTF-8"?>
<svg id="icons" xmlns="http://www.w3.org/2000/svg" viewBox="0 0 284.17 277.77">
  <path d="M226.72,135.16c0-3.94-3.19-7.13-7.13-7.13s-7.13,3.19-7.13,7.13,3.19,7.13,7.13,7.13,7.13-3.19,7.13-7.13Z"/>
  <path d="M116.64,84.94c2.17,0,3.93-1.76,3.93-3.93v-6.5c6.24-1.22,11.97-5.66,12.69-12.65,.63-6.12-3.24-14-16.24-16.05-4.01-.63-8.69-2.35-8.66-5.1,.06-4.59,4.28-5.82,6.09-6.14,4.29-.75,9.53,.92,11.27,5.55,.76,2.03,3.03,3.06,5.06,2.3,2.03-.76,3.06-3.03,2.3-5.06-2.2-5.88-7.19-9.22-12.51-10.36v-6.6c0-2.17-1.76-3.93-3.93-3.93s-3.93,1.76-3.93,3.93v6.51c-7.34,1.44-12.12,6.78-12.2,13.7-.08,6.59,5.63,11.44,15.29,12.96,6.33,1,10.02,3.87,9.65,7.48-.32,3.12-3.7,6.18-8.84,5.94-9.14-.45-10.8-6.5-10.81-6.54-.41-2.13-2.47-3.54-4.59-3.12-2.13,.41-3.53,2.46-3.13,4.59,.58,3.05,4.34,10.59,14.64,12.5v6.59c0,2.17,1.76,3.93,3.93,3.93Z"/>
  <path d="M96.99,97.82c4.28-1.78,8.72-3.32,13.28-4.63-21.09-2.66-37.45-20.69-37.45-42.49,0-23.62,19.22-42.84,42.84-42.84s42.84,19.22,42.84,42.84c0,16.34-9.2,30.57-22.69,37.79,3.99-.35,8.01-.54,12.06-.54,.7,0,1.39,.03,2.09,.04,10.07-9.27,16.4-22.56,16.4-37.29C166.36,22.74,143.62,0,115.67,0s-50.7,22.74-50.7,50.7c0,21.36,13.29,39.67,32.03,47.12Z"/>
  <path d="M84.32,118.8c.74,1.2,2.03,1.85,3.34,1.85,.71,0,1.43-.19,2.07-.59,16.11-10.02,36.76-15.54,58.14-15.54,5.81,0,11.65,.41,17.34,1.23,2.15,.3,4.14-1.19,4.45-3.33,.31-2.15-1.19-4.14-3.33-4.45-6.06-.87-12.27-1.31-18.46-1.31-22.83,0-44.95,5.94-62.29,16.73-1.84,1.15-2.41,3.57-1.26,5.41Z"/>
  <path d="M281.34,147.86l-22.6-6.61c-5.55-15.55-16.48-29.6-31.8-40.87,1.9-6.55,5.4-13.49,9.81-19.41,2.19-2.93,2.71-6.7,1.4-10.08-1.25-3.23-4.02-5.54-7.4-6.19-19.87-3.82-39.82,1.5-52.71,13.89-2.99-.68-6-1.26-9.03-1.76-1.25,2.54-2.67,4.98-4.26,7.3,4.58,.66,9.13,1.52,13.61,2.6,0,0,0,0,0,0,5.43,1.32,10.75,3.01,15.8,5.04,.48,.19,.98,.28,1.46,.28,1.56,0,3.03-.93,3.65-2.46,.81-2.01-.17-4.3-2.18-5.11-3.18-1.28-6.47-2.42-9.81-3.44,11.01-8.31,26.47-11.61,41.98-8.63,.94,.18,1.36,.81,1.56,1.32,.33,.84,.19,1.79-.37,2.54-5.61,7.52-9.92,16.58-11.82,24.85-.36,1.56,.27,3.18,1.58,4.1,15.75,11,26.72,24.99,31.74,40.44,.4,1.24,1.39,2.19,2.63,2.56l21.73,6.35v34.49l-28.75,7.55c-.98,.26-1.82,.88-2.35,1.75-6.21,10.13-15.34,19.4-26.49,26.92-.74,.05-1.48,.26-2.14,.69-6.12,3.95-12.8,7.4-19.86,10.26-2.32,.94-3.44,3.58-2.5,5.91,.71,1.76,2.41,2.83,4.2,2.83,.57,0,1.14-.11,1.7-.33,3.79-1.54,7.48-3.23,11.05-5.08l-11.36,30.35h-17.96l-11.56-22.66c-.77-1.51-2.42-2.36-4.09-2.1-14.07,2.14-28.82,2.21-42.95,.28-.58-.44-1.27-.76-2.04-.88-4.72-.72-9.42-1.68-13.97-2.85-2.42-.63-4.9,.83-5.52,3.26-.63,2.43,.83,4.9,3.26,5.52,3.06,.79,6.19,1.48,9.35,2.08l-8.85,17.35h-17.96l-15.54-41.51c-.3-.79-.84-1.47-1.55-1.92-24.28-15.66-38.21-38.17-38.21-61.75,0-27.65,18.65-52.15,47.16-67.04-2.19-1.69-4.26-3.53-6.19-5.51-9.97,5.52-18.77,12.19-26.05,19.74-.27,.17-.52,.35-.75,.59-.75,.77-1.55,1.51-2.4,2.19-1.68,1.35-3.56,2.49-5.6,3.38-1.9,.83-3.95,1.42-6.08,1.73-1.95,.29-4.06,.32-6.1,.08-1.89-.22-3.85-.73-5.69-1.47-1.69-.68-3.39-1.65-4.9-2.8-1.4-1.06-2.73-2.39-3.84-3.84-1.02-1.33-1.92-2.9-2.58-4.52-.61-1.49-1.04-3.16-1.24-4.82-.19-1.52-.16-3.17,.07-4.75,.21-1.44,.65-2.95,1.27-4.35,.56-1.27,1.34-2.54,2.26-3.67,.83-1.02,1.86-1.98,2.99-2.78,1.01-.72,2.19-1.33,3.42-1.78,1.09-.4,2.32-.66,3.55-.76,1.07-.09,2.28-.01,3.4,.21,.98,.19,2.05,.56,3.01,1.04,.83,.42,1.7,1.02,2.43,1.68,.63,.58,1.25,1.32,1.74,2.11,.41,.66,.78,1.49,1.01,2.3,.2,.67,.31,1.5,.31,2.26,0,.62-.11,1.38-.29,2.03-.15,.52-.44,1.16-.76,1.66-.25,.39-.66,.87-1.04,1.21-.29,.25-.76,.56-1.16,.74-.28,.13-.75,.26-1.1,.3-.15,.02-.4,.02-.63,0,.71-.69,1.17-1.66,1.19-2.73,.05-2.17-1.67-3.97-3.84-4.01-.91-.02-1.38-.02-1.96,.13-.67,.18-1.87,.81-2.49,1.39-.5,.47-1.23,1.48-1.54,2.28-.25,.64-.49,1.8-.46,2.71,.03,.69,.23,1.83,.61,2.71,.29,.68,.89,1.68,1.56,2.4,.51,.54,1.39,1.3,2.36,1.81,.69,.37,1.83,.83,2.95,1.02,1.05,.18,2.28,.21,3.28,.08,1.13-.15,2.34-.5,3.34-.95,1.09-.5,2.21-1.22,3.07-1.98,.96-.85,1.85-1.88,2.5-2.92,.72-1.14,1.31-2.46,1.66-3.69,.39-1.36,.6-2.86,.6-4.21,0-1.48-.22-3.05-.62-4.42-.44-1.51-1.09-2.99-1.89-4.27-.87-1.4-1.95-2.7-3.12-3.76-1.27-1.15-2.72-2.16-4.2-2.9-1.6-.8-3.34-1.4-5.02-1.73-1.83-.36-3.74-.47-5.52-.33-1.93,.15-3.87,.57-5.62,1.21-1.88,.69-3.71,1.64-5.29,2.77-1.69,1.2-3.25,2.66-4.52,4.22-1.36,1.67-2.51,3.56-3.35,5.46-.89,2.04-1.53,4.24-1.85,6.36-.33,2.27-.37,4.64-.1,6.85,.29,2.35,.9,4.72,1.77,6.84,.92,2.26,2.17,4.45,3.62,6.33,1.55,2.02,3.34,3.81,5.31,5.31,2.09,1.59,4.35,2.88,6.72,3.83,2.51,1.01,5.1,1.68,7.7,1.99,1.24,.15,2.48,.22,3.72,.22,1.5,0,2.99-.11,4.46-.33,.59-.09,1.17-.2,1.75-.32-6.96,11.41-10.86,24.1-10.86,37.46,0,25.94,14.82,50.53,40.71,67.64l16.04,42.85c.57,1.53,2.04,2.55,3.68,2.55h23.09c1.48,0,2.83-.83,3.5-2.14l11.38-22.3c13.76,1.83,28.04,1.83,41.81,0l11.37,22.3c.67,1.32,2.02,2.14,3.5,2.14h23.09c1.64,0,3.1-1.02,3.68-2.55l15.72-41.98c.48-.4,.86-.88,1.13-1.41,11.75-7.9,21.16-17.31,28-28.01l30.18-7.92c1.73-.45,2.93-2.01,2.93-3.8v-40.47c0-1.75-1.15-3.28-2.83-3.77Z"/>
</svg>