<?xml version="1.0" encoding="UTF-8"?><svg id="Layer_2" xmlns="http://www.w3.org/2000/svg" viewBox="0 0 284.17 277.77"><defs><style>.cls-1{fill:#2e2d2c;}.cls-2{fill:#fff;}.cls-2,.cls-3{stroke-width:7.86px;}.cls-2,.cls-3,.cls-4{stroke:#2e2d2c;stroke-linecap:round;stroke-linejoin:round;}.cls-3,.cls-4{fill:none;}.cls-4{stroke-width:9.07px;}</style></defs><g id="icons"><g><circle class="cls-1" cx="219.59" cy="135.16" r="7.13"/><path class="cls-3" d="M280.24,151.63l-24.56-7.18c-5.37-16.54-17.11-31.19-33.22-42.45,1.78-7.73,5.79-16.2,11.14-23.38,2.78-3.73,.97-9.19-3.6-10.06-20.32-3.9-39.27,2.23-50.72,14.36-11.22-2.72-23.18-4.22-35.61-4.22-63.72,0-115.37,38.52-115.37,86.04,0,26.01,15.54,49.28,40.01,65.05l16.49,44.06h23.09l12.65-24.8c7.47,1.13,15.21,1.73,23.13,1.73s15.66-.6,23.13-1.73l12.65,24.8h23.09l16.49-44.06c12.48-8.05,22.58-18.04,29.52-29.37l31.68-8.32v-40.46Z"/><path class="cls-4" d="M106.11,246.1c4.68,1.21,9.49,2.19,14.42,2.94"/><path class="cls-3" d="M25.71,97.08s-.79-.02-.86,0c-.07,.02-.69,.34-.8,.45-.11,.1-.49,.64-.57,.85-.08,.21-.21,.84-.2,1.15,.01,.3,.14,.95,.29,1.29,.15,.35,.51,.93,.82,1.26,.31,.33,.87,.79,1.34,1.04s1.19,.52,1.79,.62c.59,.1,1.42,.14,2.09,.05,.67-.09,1.53-.31,2.21-.63,.68-.31,1.49-.81,2.11-1.36,.62-.55,1.29-1.3,1.78-2.07,.48-.77,.94-1.74,1.21-2.68,.27-.94,.45-2.07,.45-3.12s-.15-2.25-.47-3.34c-.31-1.09-.81-2.26-1.45-3.28-.64-1.02-1.48-2.07-2.43-2.93s-2.1-1.68-3.31-2.29c-1.21-.61-2.61-1.11-4.02-1.38-1.4-.27-2.96-.39-4.46-.27-1.5,.12-3.1,.44-4.59,.98-1.49,.54-3,1.31-4.35,2.27-1.35,.96-2.66,2.16-3.75,3.5-1.09,1.34-2.08,2.91-2.8,4.56-.73,1.65-1.28,3.49-1.56,5.36-.27,1.86-.32,3.86-.09,5.8s.73,3.95,1.5,5.83c.77,1.88,1.81,3.75,3.1,5.42,1.28,1.67,2.84,3.25,4.57,4.57,1.74,1.32,3.72,2.47,5.81,3.32,2.1,.85,4.38,1.46,6.69,1.73,2.32,.27,4.75,.26,7.14-.09,2.38-.35,4.8-1.02,7.08-2.02,2.28-1,4.5-2.32,6.49-3.92,.96-.77,1.88-1.61,2.76-2.52"/><path class="cls-4" d="M198.42,240.44c7.39-3,14.29-6.58,20.61-10.65"/><path class="cls-3" d="M195.63,88.13c-5.19-2.08-10.65-3.84-16.35-5.21"/><circle class="cls-3" cx="115.67" cy="50.7" r="46.77"/><path class="cls-2" d="M129.4,38.73c-4.5-12-24.81-10.58-24.96,1.92-.07,5.59,6.49,8.17,11.97,9.03,19.97,3.15,14.46,21.94,0,21.22-10.97-.54-14.14-7.96-14.48-9.73"/><line class="cls-2" x1="116.64" y1="20.39" x2="116.64" y2="30.46"/><line class="cls-2" x1="116.64" y1="70.93" x2="116.64" y2="81.01"/><path class="cls-3" d="M165.78,101.86c-5.8-.83-11.79-1.27-17.9-1.27-22.95,0-44.21,6.17-60.22,16.13"/></g></g></svg>