<?xml version="1.0" encoding="UTF-8"?>
<svg id="icons" xmlns="http://www.w3.org/2000/svg" viewBox="0 0 303.02 255.59">
  <path d="M29.83,181.61c-2.76,2.83-2.76,7.42,0,10.26,2.76,2.83,7.24,2.83,10.01,0,2.76-2.83,2.76-7.42,0-10.26-2.76-2.83-7.24-2.83-10.01,0Z"/>
  <g>
    <path d="M114.04,108.77v-32.52h31.9v40.94c2.53,1.33,5.13,2.85,7.86,4.61V42.05h31.9V121.87c2.65,.09,5.28,.47,7.86,1.15V7.86h31.9V114.17c2.62-2.05,5.26-4.1,7.86-6.12V3.93c0-2.17-1.76-3.93-3.93-3.93h-39.76c-2.17,0-3.93,1.76-3.93,3.93v30.26h-35.83c-2.17,0-3.93,1.76-3.93,3.93v30.27h-35.83c-2.17,0-3.93,1.76-3.93,3.93v36.25c2.74,.01,5.35,.07,7.86,.2Z"/>
    <path d="M301.9,110.28c-16.29-16.7-33.72-18.12-51.79-4.21-14.56,11.2-36.29,28.26-44.63,34.82-1.37-1.81-2.94-3.42-4.74-4.81-6.42-4.98-13.57-5.52-16.34-5.52h-33.13c-16.8-11.34-27.89-13.28-45.98-13.28-22.16,0-40.26,10.41-61.18,35.54l5.51,5.65c19.66-23.88,35.64-33.34,55.66-33.34,17.89,0,27,1.9,42.54,12.59,.66,.45,1.43,.69,2.23,.69h34.34c4.38,0,18.1,1.67,19.66,22.15h-68.22c-2.17,0-3.93,1.76-3.93,3.93s1.76,3.93,3.93,3.93h72.3c2.17,0,3.93-1.76,3.93-3.93,0-6.39-.92-11.94-2.74-16.63,7.44-5.85,30.42-23.9,45.58-35.56,13.96-10.74,25.97-10.56,38.53,.73l-88.36,85.27H88.49l-54.65-56.01c-.74-.76-1.75-1.18-2.81-1.18s-2.07,.43-2.81,1.18L1.12,170.06c-1.52,1.55-1.48,4.04,.07,5.56,1.55,1.52,4.04,1.48,5.56-.07l24.29-24.89,71.46,73.23-24.43,25.03c-1.52,1.55-1.48,4.04,.07,5.56,.76,.75,1.75,1.12,2.74,1.12s2.04-.4,2.81-1.18l27.1-27.78c1.49-1.53,1.49-3.96,0-5.49l-14.63-14.99h110.5c1.02,0,2-.39,2.73-1.1l92.43-89.2c.75-.73,1.18-1.72,1.2-2.77,.02-1.05-.39-2.05-1.12-2.8Z"/>
  </g>
</svg>