<?xml version="1.0" encoding="UTF-8"?><svg id="Layer_2" xmlns="http://www.w3.org/2000/svg" viewBox="0 0 311.73 255.59"><defs><style>.cls-1{fill:#2e2d2c;}.cls-2{fill:#fff;}.cls-2,.cls-3,.cls-4{stroke-linecap:round;stroke-linejoin:round;}.cls-2,.cls-4{stroke:#2e2d2c;stroke-width:7.86px;}.cls-3{stroke:#fff;stroke-width:25.28px;}.cls-3,.cls-4{fill:none;}</style></defs><g id="icons"><g><g><polyline class="cls-4" points="110.11 128.81 110.11 72.32 149.87 72.32 149.87 128.81"/><polyline class="cls-4" points="149.87 128.81 149.87 38.12 189.63 38.12 189.63 128.81"/><polyline class="cls-4" points="189.63 128.81 189.63 3.93 229.39 3.93 229.39 128.81"/></g><g><g><path class="cls-3" d="M204.47,146.68s29.6-23.31,48.04-37.5c19.39-14.92,34.45-8.6,46.59,3.84l-92.43,89.2H86.84"/><path class="cls-3" d="M42.15,161.53c22.71-29.2,40.72-40.33,63.14-40.33,18.76,0,28.76,2.27,44.76,13.28h34.34c5.52,0,23.73,2.51,23.73,30.01h-72.3"/><path class="cls-4" d="M204.47,146.68s29.6-23.31,48.04-37.5c19.39-14.92,34.45-8.6,46.59,3.84l-92.43,89.2H86.84"/><path class="cls-4" d="M42.15,161.53c22.71-29.2,40.72-40.33,63.14-40.33,18.76,0,28.76,2.27,44.76,13.28h34.34c5.52,0,23.73,2.51,23.73,30.01h-72.3"/><polyline class="cls-2" points="3.93 172.81 31.03 145.03 107.98 223.89 80.87 251.66"/></g><path class="cls-1" d="M29.83,181.61c-2.76,2.83-2.76,7.42,0,10.26,2.76,2.83,7.24,2.83,10.01,0,2.76-2.83,2.76-7.42,0-10.26-2.76-2.83-7.24-2.83-10.01,0Z"/></g></g></g></svg>