<?xml version="1.0" encoding="UTF-8"?>
<svg id="icons" xmlns="http://www.w3.org/2000/svg" viewBox="0 0 307.49 245.83">
  <defs>
    <style>
      .cls-1 {
        letter-spacing: 0em;
      }

      .cls-2 {
        letter-spacing: -.06em;
      }

      .cls-3 {
        letter-spacing: 0em;
      }

      .cls-4 {
        letter-spacing: -.03em;
      }

      .cls-5 {
        letter-spacing: -.01em;
      }

      .cls-6 {
        letter-spacing: 0em;
      }

      .cls-7 {
        font-family: MyriadPro-Regular, 'Myriad Pro';
        font-size: 67px;
      }

      .cls-8 {
        letter-spacing: 0em;
      }

      .cls-9 {
        letter-spacing: -.01em;
      }

      .cls-10 {
        letter-spacing: .02em;
      }
    </style>
  </defs>
  <g>
    <path d="M70.32,245.83c-3.54,0-6.73-2.62-7.42-6.09l-4.38-20.5c-.1-.47-.76-1.3-1.14-1.49l-.3-.16-13.45-7.79c-.35-.23-1.39-.38-1.79-.25l-20.02,6.52c-3.29,1.13-7.16-.32-8.93-3.39L.97,192.05c-1.77-3.07-1.09-7.14,1.57-9.47l15.59-14.01c.35-.32,.74-1.29,.71-1.71v-.34s-.03-15.37-.03-15.37l.02-.17c.03-.42-.37-1.4-.68-1.69l-15.66-14.1c-2.62-2.29-3.3-6.36-1.53-9.43l11.89-20.58c1.77-3.07,5.64-4.52,8.99-3.38l19.93,6.47c.46,.15,1.5,0,1.85-.24l.29-.18,13.47-7.77c.38-.19,1.03-1.01,1.12-1.42l4.4-20.61c.68-3.42,3.87-6.04,7.41-6.04h23.73s0,0,0,0c3.54,0,6.73,2.62,7.41,6.09l4.38,20.5c.1,.47,.75,1.3,1.14,1.49l.3,.16,13.45,7.79c.35,.24,1.39,.38,1.79,.26l20.03-6.53c3.3-1.13,7.17,.32,8.93,3.39l11.91,20.63c1.77,3.06,1.1,7.11-1.55,9.45l-15.61,14.03c-.35,.32-.75,1.3-.72,1.72v.34s.02,15.37,.02,15.37v.17c-.04,.42,.35,1.4,.66,1.68l15.66,14.1c2.62,2.29,3.3,6.37,1.53,9.43l-11.89,20.58c-1.77,3.07-5.63,4.52-8.99,3.37l-19.93-6.48c-.45-.14-1.49,0-1.84,.24l-.29,.19-13.47,7.76c-.38,.19-1.03,1.01-1.12,1.43l-4.4,20.61c-.67,3.41-3.86,6.03-7.4,6.04h-23.73Zm23.44-7.64s0,.02,0,.02v-.02Zm-23.16-.04h0s0,0,0,0Zm-9.7-27.43c2.55,1.28,4.78,4.16,5.33,6.94l4.34,20.32h23.25s4.35-20.38,4.35-20.38c.54-2.72,2.76-5.61,5.32-6.88l12.92-7.46c2.38-1.58,5.99-2.06,8.67-1.15l19.75,6.42,11.65-20.17-15.48-13.94c-2.09-1.83-3.48-5.19-3.31-8.04v-14.92c-.18-2.85,1.21-6.22,3.35-8.08l15.44-13.88-11.66-20.2-19.79,6.45c-2.63,.9-6.24,.42-8.62-1.16l-12.91-7.46c-2.55-1.28-4.78-4.16-5.33-6.94l-4.34-20.32h-23.25s-4.35,20.38-4.35,20.38c-.54,2.73-2.77,5.61-5.32,6.88l-12.91,7.46c-2.38,1.58-5.99,2.06-8.67,1.15l-19.75-6.42-11.65,20.16,15.47,13.94c2.09,1.83,3.47,5.19,3.3,8.04v14.91c.19,2.85-1.2,6.22-3.33,8.09l-15.45,13.88,11.67,20.2,19.79-6.45c2.64-.9,6.25-.41,8.62,1.17l12.91,7.46Zm-41.54-2.11s-.02,0-.02,0h.02Zm125.63-.03h.01s0,0-.01,0Zm11.65-20.07s.01,.01,.02,.02l-.02-.02Zm-148.86-.05h0s0,0,0,0Zm-.04-59.15l.02,.02s-.01-.01-.02-.02Zm11.65-20.05s0,0,.01,0h-.01Zm125.66-.04h-.02s.01,0,.02,0Zm-51.27-29.54s0,0,0,.01h0Zm-23.16-.06v.02s0-.02,0-.02Zm11.58,113.65c-3.54,0-7.11-.55-10.44-1.62-4.28-1.36-8.23-3.54-11.72-6.48-3.5-2.97-6.32-6.49-8.38-10.48-2.05-3.95-3.33-8.42-3.71-12.9-.38-4.47,.13-9.08,1.48-13.34,1.37-4.29,3.55-8.23,6.49-11.72,2.96-3.5,6.48-6.32,10.47-8.38,3.96-2.05,8.42-3.33,12.9-3.71,4.49-.38,9.1,.13,13.34,1.49,4.28,1.36,8.84,4.48,9.03,4.62,1.51,1.04,3.71,2.89,4.99,4.21,.16,.17,4.01,4.13,6.08,8.14,2.05,3.95,3.33,8.41,3.71,12.9h0c.38,4.48-.14,9.09-1.49,13.34-1.36,4.28-3.54,8.22-6.49,11.72-2.95,3.49-6.47,6.31-10.47,8.38-3.97,2.06-8.44,3.34-12.91,3.71-.96,.08-1.93,.12-2.9,.12Zm0-60.89c-.75,0-1.5,.03-2.24,.09-3.46,.29-6.9,1.28-9.96,2.86-3.07,1.59-5.79,3.76-8.08,6.46-2.27,2.69-3.96,5.74-5.01,9.04-1.04,3.28-1.44,6.84-1.14,10.29,.29,3.47,1.28,6.91,2.86,9.96,1.59,3.07,3.76,5.79,6.47,8.08,2.69,2.27,5.74,3.95,9.04,5,3.27,1.05,6.83,1.45,10.29,1.15,3.46-.29,6.9-1.28,9.96-2.86,3.08-1.59,5.79-3.77,8.07-6.46,2.27-2.7,3.96-5.75,5.01-9.04,1.04-3.28,1.44-6.84,1.15-10.29h0c-.29-3.46-1.28-6.9-2.86-9.95-1.27-2.46-3.84-5.36-4.73-6.27-.93-.95-2.71-2.46-3.82-3.22-1.05-.72-4.34-2.77-6.96-3.6-2.57-.82-5.32-1.24-8.06-1.24Z"/>
    <path d="M203.81,146.76c-1.22,0-2.44-.3-3.52-.93l-18.25-10.52c-2.9-1.67-4.28-5.32-3.2-8.5l.04-.1,6.94-18.76c.05-.24-.04-.85-.17-1.08l-.17-.26-6.71-11.64c-.11-.19-.58-.56-.84-.65l-19.79-3.33c-3.29-.64-5.78-3.66-5.78-7.01v-21.14c-.01-3.35,2.46-6.37,5.75-7.02l.1-.02,19.72-3.33c.22-.08,.7-.46,.84-.68l.14-.27,6.71-11.63c.11-.2,.2-.8,.15-1.07l-7-18.82c-1.08-3.17,.29-6.83,3.19-8.5L200.24,.94c2.9-1.67,6.75-1.04,8.96,1.48l.07,.08,12.75,15.4c.18,.16,.75,.39,1.01,.39l.17-.02h.14s13.27,0,13.27,0l.18,.02c.22,0,.78-.23,.99-.41l12.81-15.46c2.21-2.52,6.05-3.16,8.96-1.49l18.24,10.51c2.9,1.67,4.28,5.33,3.2,8.5l-.04,.1-6.94,18.76c-.05,.23,.04,.85,.17,1.08l.17,.26,6.7,11.64c.12,.19,.59,.57,.85,.66l19.8,3.33c3.29,.64,5.77,3.66,5.77,7.01v21.14c.01,3.35-2.47,6.37-5.76,7.02l-.1,.02-19.71,3.33c-.23,.08-.71,.46-.85,.69l-.14,.27-6.72,11.63c-.11,.2-.2,.8-.15,1.07l7,18.83c1.08,3.17-.29,6.83-3.19,8.5l-18.27,10.55c-2.9,1.67-6.75,1.04-8.96-1.48l-.07-.08-12.76-15.4c-.18-.16-.75-.38-1.01-.39l-.17,.02h-.14s-13.27,0-13.27,0l-.18-.02c-.22,0-.78,.23-.99,.41l-12.81,15.46c-1.38,1.58-3.4,2.42-5.43,2.42Zm-17.33-17.96l17.21,9.92,12.45-15.03c1.71-1.95,4.77-3.22,7.39-3.06h12.81c2.61-.17,5.68,1.11,7.39,3.06l.07,.08,12.38,14.95,17.23-9.95-6.8-18.29c-.85-2.49-.42-5.72,1.03-7.94l6.4-11.1c1.18-2.37,3.77-4.36,6.35-4.87l.1-.02,19.13-3.24v-19.93s-19.25-3.23-19.25-3.23c-2.58-.51-5.17-2.49-6.36-4.86l-6.4-11.09c-1.46-2.21-1.89-5.44-1.04-7.93l.04-.1,6.74-18.21-17.21-9.92-12.45,15.03c-1.73,1.98-4.74,3.24-7.39,3.06h-12.81c-2.61,.17-5.68-1.1-7.39-3.05l-.07-.08-12.38-14.94-17.23,9.95,6.8,18.29c.85,2.49,.42,5.72-1.03,7.93l-6.39,11.1c-1.17,2.34-3.81,4.37-6.36,4.87l-.1,.02-19.14,3.23v19.94s19.25,3.23,19.25,3.23c2.59,.51,5.17,2.5,6.35,4.87l6.4,11.09c1.46,2.21,1.89,5.44,1.04,7.93l-.04,.1-6.74,18.21Zm43.45-25.27c-.46,0-.92,0-1.38-.03-3.92-.18-7.87-1.16-11.44-2.84-3.57-1.67-6.85-4.08-9.48-6.98-2.65-2.91-4.7-6.29-6.06-10.06-1.36-3.79-1.96-7.7-1.77-11.63,.18-3.9,1.16-7.85,2.84-11.43,1.67-3.56,4.08-6.84,6.97-9.48,2.92-2.66,6.31-4.7,10.07-6.06,3.78-1.36,7.68-1.96,11.63-1.77,3.91,.18,7.86,1.16,11.43,2.84,3.57,1.67,6.85,4.09,9.48,6.98,2.62,2.87,4.62,7,4.84,7.46,.69,1.45,1.55,3.82,1.95,5.38,.13,.5,1.23,4.96,1.05,8.85-.17,3.9-1.15,7.85-2.83,11.43-1.67,3.57-4.09,6.84-6.98,9.48-2.91,2.65-6.29,4.69-10.06,6.06-3.34,1.2-6.78,1.81-10.25,1.81Zm0-52.46c-2.56,0-5.1,.45-7.57,1.34-2.78,1.01-5.29,2.52-7.44,4.48-2.14,1.95-3.92,4.38-5.15,7.01-1.25,2.65-1.97,5.57-2.1,8.45-.13,2.9,.31,5.79,1.32,8.6,1.01,2.78,2.52,5.29,4.48,7.44,1.94,2.14,4.37,3.92,7.01,5.16,2.64,1.24,5.56,1.97,8.46,2.1,2.92,.14,5.8-.31,8.59-1.31,2.79-1.01,5.3-2.52,7.44-4.48,2.14-1.95,3.92-4.37,5.16-7.01h0c1.24-2.64,1.97-5.56,2.09-8.44,.11-2.31-.55-5.51-.81-6.55-.28-1.08-.94-2.93-1.42-3.94-.46-.97-2-3.85-3.55-5.55-1.95-2.14-4.37-3.92-7.01-5.16-2.64-1.24-5.57-1.97-8.45-2.1-.34-.02-.68-.02-1.02-.02Z"/>
  </g>
  <text class="cls-7" transform="translate(-425.59 -487.33)"><tspan x="0" y="0">Busines</tspan><tspan class="cls-5" x="212.72" y="0">s</tspan><tspan x="238.52" y="0">,</tspan><tspan class="cls-4" x="0" y="80.4">F</tspan><tspan x="30.89" y="80.4">inan</tspan><tspan class="cls-3" x="153.23" y="80.4">c</tspan><tspan x="182.84" y="80.4">e</tspan><tspan x="0" y="160.8" xml:space="preserve"> I</tspan><tspan class="cls-2" x="30.22" y="160.8">T</tspan><tspan x="59.5" y="160.8">,</tspan><tspan x="0" y="241.2">Li</tspan><tspan class="cls-9" x="47.3" y="241.2">f</tspan><tspan x="65.99" y="241.2">es</tspan><tspan class="cls-6" x="126.09" y="241.2">t</tspan><tspan x="148.87" y="241.2">yle</tspan><tspan x="0" y="321.6">Ne</tspan><tspan class="cls-6" x="77.65" y="321.6">t</tspan><tspan class="cls-8" x="100.43" y="321.6">w</tspan><tspan x="149.07" y="321.6">o</tspan><tspan class="cls-1" x="185.86" y="321.6">r</tspan><tspan class="cls-10" x="208.03" y="321.6">k</tspan><tspan x="240.59" y="321.6">ing</tspan></text>
</svg>