<?xml version="1.0" encoding="UTF-8"?><svg id="Layer_2" xmlns="http://www.w3.org/2000/svg" viewBox="0 0 245.12 245.24"><defs><style>.cls-1{stroke-width:7.86px;}.cls-1,.cls-2{fill:none;stroke:#2e2d2c;stroke-linecap:round;stroke-linejoin:round;}.cls-2{stroke-width:8.28px;}</style></defs><g id="icons"><g><path class="cls-2" d="M182.48,142.34C236.8,88.03,240.98,4.14,240.98,4.14c0,0-83.88,4.18-138.2,58.49-23.35,23.35-37.39,52.14-45.86,77.4l48.17,48.17c25.26-8.47,54.05-22.51,77.4-45.86Z"/><line class="cls-2" x1="56.66" y1="139.78" x2="105.1" y2="188.22"/><line class="cls-2" x1="56.66" y1="139.78" x2="105.1" y2="188.22"/><line class="cls-1" x1="43.78" y1="154.65" x2="90.59" y2="201.46"/><path class="cls-1" d="M56.66,139.78L5.63,116.63c33.96-33.96,67.44-54.26,90.21-47.06"/><path class="cls-1" d="M105.1,188.22l23.15,51.03c33.96-33.96,54.26-67.44,47.06-90.21"/><line class="cls-1" x1="179.22" y1="17.22" x2="227.66" y2="65.66"/><circle class="cls-1" cx="153.74" cy="91.38" r="19.94"/><line class="cls-1" x1="36.84" y1="175.47" x2="3.93" y2="208.38"/><line class="cls-1" x1="69.77" y1="208.4" x2="36.86" y2="241.31"/><line class="cls-1" x1="53.24" y1="191.88" x2="33.29" y2="211.83"/></g></g></svg>