<?xml version="1.0" encoding="UTF-8"?>
<svg id="icons" xmlns="http://www.w3.org/2000/svg" viewBox="0 0 312.21 245.57">
  <path d="M80.05,109.82h-.05c-1.15-.01-2.23-.53-2.96-1.4l-25.71-30.67c-1.39-1.66-1.18-4.14,.49-5.54,1.66-1.39,4.14-1.18,5.54,.49l22.78,27.17,33.69-38.25c1.43-1.63,3.92-1.79,5.55-.35,1.63,1.43,1.79,3.92,.35,5.55l-36.71,41.68c-.75,.85-1.82,1.33-2.95,1.33Z"/>
  <path d="M30.71,104.85h-4.8c-2.17,0-3.93-1.76-3.93-3.93s1.76-3.93,3.93-3.93h4.8c2.17,0,3.93,1.76,3.93,3.93s-1.76,3.93-3.93,3.93Z"/>
  <path d="M80.05,55.51c-2.17,0-3.93-1.76-3.93-3.93v-4.8c0-2.17,1.76-3.93,3.93-3.93s3.93,1.76,3.93,3.93v4.8c0,2.17-1.76,3.93-3.93,3.93Z"/>
  <path d="M80.06,159.01c-2.17,0-3.93-1.76-3.93-3.93v-4.8c0-2.17,1.76-3.93,3.93-3.93s3.93,1.76,3.93,3.93v4.8c0,2.17-1.76,3.93-3.93,3.93Z"/>
  <path d="M200.05,206.69c-2.17,0-3.93-1.76-3.93-3.93s1.76-3.93,3.93-3.93c23.8,0,43.17-19.36,43.17-43.17v-28.89c0-2.17,1.76-3.93,3.93-3.93s3.93,1.76,3.93,3.93v28.89c0,28.13-22.89,51.02-51.02,51.02Z"/>
  <path d="M234.57,245.57h-69.04c-32.56,0-55.3-10.63-55.3-25.84v-.22c0-2.17,1.76-3.93,3.93-3.93h171.78c2.17,0,3.93,1.76,3.93,3.93v.22c0,15.21-22.74,25.84-55.3,25.84Zm-115.45-22.13c4.18,7.51,20.88,14.28,46.41,14.28h69.04c14.33,0,27.12-2.23,36-6.28,5.1-2.32,8.67-5.11,10.35-8H119.12Z"/>
  <path d="M279.13,187.06h-16.64c-2.17,0-3.93-1.76-3.93-3.93s1.76-3.93,3.93-3.93h16.64c13.91,0,25.22-11.31,25.22-25.22s-11.31-25.22-25.22-25.22h-10.88c-2.17,0-3.93-1.76-3.93-3.93s1.76-3.93,3.93-3.93h10.88c18.24,0,33.08,14.84,33.08,33.08s-14.84,33.08-33.08,33.08Z"/>
  <path d="M149.12,206.69h11.91c-15.34-11.76-25.25-30.25-25.25-51.02v-46.07h128.54v46.07c0,20.77-9.92,39.27-25.25,51.02h11.91c13.09-13.06,21.2-31.11,21.2-51.02v-50c0-2.17-1.76-3.93-3.93-3.93H131.86c-2.17,0-3.93,1.76-3.93,3.93v50c0,19.91,8.11,37.96,21.2,51.02Z"/>
  <path d="M237.34,67.51c0,9.34-3.14,13.78-6.78,18.92-1.43,2.02-2.93,4.14-4.25,6.6h9.22c.47-.68,.95-1.37,1.44-2.06,3.86-5.45,8.23-11.62,8.23-23.46s-4.37-18.02-8.23-23.47c-3.64-5.14-6.78-9.58-6.78-18.92s3.14-13.79,6.78-18.92c1.25-1.77,.84-4.22-.93-5.48-1.77-1.25-4.22-.84-5.48,.93-3.86,5.45-8.23,11.62-8.23,23.47s4.37,18.02,8.23,23.46c3.64,5.14,6.78,9.58,6.78,18.92Z"/>
  <path d="M210.08,73.29c0,7.9-2.67,11.67-5.76,16.04-.83,1.18-1.7,2.4-2.52,3.72h9.52c3.22-4.58,6.62-9.94,6.62-19.75,0-10.41-3.83-15.81-7.21-20.58-3.09-4.36-5.76-8.13-5.76-16.04s2.67-11.67,5.76-16.04c1.25-1.77,.84-4.22-.93-5.48-1.77-1.25-4.22-.84-5.48,.93-3.38,4.77-7.21,10.17-7.21,20.58s3.83,15.81,7.21,20.58c3.09,4.36,5.76,8.13,5.76,16.04Z"/>
  <path d="M182.83,79.06c0,6.46-2.09,9.41-4.74,13.15-.19,.27-.39,.55-.59,.83h9.48c2.02-3.37,3.71-7.56,3.71-13.98,0-8.96-3.28-13.6-6.19-17.69-2.65-3.74-4.74-6.69-4.74-13.15s2.09-9.41,4.74-13.15c1.25-1.77,.84-4.22-.94-5.48-1.77-1.25-4.22-.83-5.48,.94-2.9,4.09-6.18,8.73-6.18,17.69s3.28,13.6,6.18,17.69c2.65,3.74,4.74,6.69,4.74,13.15Z"/>
  <path d="M119.87,165.75s0-.04,0-.07c-.18-1.42-.32-2.84-.42-4.28,0,0,0,0,0-.01-11.34,7.41-24.86,11.74-39.39,11.74-39.81,0-72.2-32.39-72.2-72.2S40.24,28.73,80.05,28.73c37.14,0,67.81,28.2,71.76,64.3h7.9c-3.98-40.45-38.18-72.16-79.66-72.16C35.91,20.88,0,56.79,0,100.93s35.91,80.05,80.05,80.05c14.75,0,28.58-4.03,40.46-11.02-.25-1.39-.46-2.8-.64-4.21Z"/>
</svg>