<?xml version="1.0" encoding="UTF-8"?><svg id="Layer_2" xmlns="http://www.w3.org/2000/svg" viewBox="0 0 312.21 253.43"><defs><style>.cls-1{stroke-width:23.57px;}.cls-1,.cls-2{stroke:#fff;}.cls-1,.cls-2,.cls-3{fill:#fff;}.cls-1,.cls-2,.cls-3,.cls-4{stroke-linecap:round;stroke-linejoin:round;}.cls-2{stroke-width:25.28px;}.cls-3,.cls-4{stroke:#2e2d2c;stroke-width:7.86px;}.cls-4{fill:none;}</style></defs><g id="icons"><g><g><circle class="cls-4" cx="80.05" cy="100.93" r="76.12"/><polyline class="cls-4" points="54.34 75.22 80.05 105.89 116.77 64.21"/><line class="cls-3" x1="25.9" y1="100.92" x2="30.7" y2="100.92"/><line class="cls-3" x1="80.05" y1="51.58" x2="80.05" y2="46.78"/><line class="cls-3" x1="134.2" y1="105.15" x2="129.4" y2="105.15"/><line class="cls-3" x1="80.06" y1="150.28" x2="80.06" y2="155.08"/></g><g><path class="cls-4" d="M175.83,109.9c0-7.71,2.73-11.56,5.46-15.42,2.73-3.85,5.46-7.71,5.46-15.42s-2.73-11.57-5.46-15.42c-2.73-3.86-5.46-7.71-5.46-15.42s2.73-11.57,5.46-15.42"/><path class="cls-4" d="M201.04,109.9c0-9.15,3.24-13.73,6.48-18.31,3.24-4.58,6.48-9.15,6.48-18.31s-3.24-13.73-6.48-18.31c-3.24-4.58-6.48-9.15-6.48-18.31s3.24-13.73,6.48-18.31"/><path class="cls-4" d="M226.25,109.9c0-10.6,3.75-15.89,7.51-21.19,3.75-5.3,7.51-10.6,7.51-21.19s-3.75-15.9-7.51-21.19c-3.75-5.3-7.51-10.6-7.51-21.19s3.75-15.9,7.51-21.19"/></g><path class="cls-2" d="M131.86,105.68v50c0,37.66,30.53,68.2,68.2,68.2s68.2-30.53,68.2-68.2v-50H131.86Z"/><path class="cls-4" d="M247.15,126.78v28.89c0,25.97-21.13,47.09-47.09,47.09"/><path class="cls-4" d="M131.86,105.68v50c0,37.66,30.53,68.2,68.2,68.2s68.2-30.53,68.2-68.2v-50H131.86Z"/><path class="cls-1" d="M234.57,241.64h-69.04c-31.86,0-51.37-10.38-51.37-21.91v-.22h171.78v.22c0,11.53-19.51,21.91-51.37,21.91Z"/><path class="cls-4" d="M234.57,241.64h-69.04c-32.32,0-51.37-10.38-51.37-21.91v-.22h171.78v.22c0,11.53-19.51,21.91-51.37,21.91Z"/><path class="cls-4" d="M262.49,183.13h16.64c16.1,0,29.15-13.05,29.15-29.15s-13.05-29.15-29.15-29.15h-10.88"/></g></g></svg>