<?xml version="1.0" encoding="UTF-8"?><svg id="Layer_2" xmlns="http://www.w3.org/2000/svg" viewBox="0 0 242.28 287.15"><defs><style>.cls-1{fill:#8e7b3e;}</style></defs><g id="Layer_1-2"><g><path class="cls-1" d="M240.07,147.41h-51.29c-1.1,0-2.21,.83-2.21,2.2v3.03c0,.83,.55,1.93,1.66,2.2,11.03,3.31,12.41,7.17,12.41,20.4v44.94c-8.82,7.17-20.13,12.13-36.12,12.13-43.02,0-73.62-37.5-73.62-86.58,0-7.44,.65-14.6,1.88-21.4l55.56,66.72c1.65,2.48,4.41,3.58,7.17,3.58,2.48,0,4.96-1.1,4.96-5.24V59.22c.52-.01,1.04-.04,1.57-.04,29.23,0,47.42,25.92,56.52,47.42,.28,.83,1.1,1.38,2.2,1.38h2.48c1.1,0,1.65-.55,1.65-2.21-.28-1.38-3.03-27.85-4.41-40.81-.28-2.48-1.93-4.69-4.13-6.07-14.34-9.1-35.29-13.79-54.32-13.79-.53,0-1.04,.03-1.57,.03V19.58c0-6.89,1.66-9.65,9.93-12.13,1.1-.28,1.65-1.38,1.65-2.21V2.21c0-1.38-1.1-2.21-2.21-2.21h-36.12c-1.38,0-2.2,.83-2.2,2.21v3.03c0,.83,.55,1.93,1.38,2.21,8.55,2.48,9.93,5.24,10.2,12.13v26.95c-21.37,3.19-39.79,11.83-53.93,24.83L34.47,3.31c-1.65-2.21-4.41-3.31-7.17-3.31H2.21C.83,0,0,.83,0,2.21v3.03c0,.83,.55,1.93,1.38,2.21,8.55,2.48,9.93,5.24,10.2,12.13V173.16c-.28,6.89-1.66,9.93-10.2,12.41-.83,.28-1.38,1.1-1.38,2.21v2.76c0,1.38,.83,2.48,2.21,2.48H38.32c1.1,0,2.21-1.1,2.21-2.48v-2.76c0-1.1-.55-1.93-1.65-2.21-8.27-2.48-9.65-5.51-9.93-12.41V47.7l40.89,49.1c-7.22,14.08-11.2,30.58-11.2,48.96,0,60.39,45.22,100.64,105.88,100.64,28.12,0,48.53-9.1,63.42-18.47,2.2-1.38,2.76-3.31,2.76-6.07v-54.87c.28-6.89,1.65-9.65,9.93-12.13,1.1-.28,1.66-1.38,1.66-2.2v-3.03c0-1.38-.83-2.2-2.21-2.2ZM143.1,61.79v76.63l-37.91-47.15c9.02-14.44,21.97-24.88,37.91-29.48Z"/><g><path class="cls-1" d="M0,285.87v-22.43l15.31,16.02v-14.59h3.17v22.28l-15.31-15.98v14.7H0Z"/><path class="cls-1" d="M35.63,280.77h-8.99l-2.34,5.1h-3.41l10.39-22.32,10.02,22.32h-3.47l-2.2-5.1Zm-1.29-2.98l-3.11-7.14-3.26,7.14h6.38Z"/><path class="cls-1" d="M55.41,268l-2.57,1.52c-.48-.83-.94-1.38-1.37-1.63-.45-.29-1.04-.44-1.75-.44-.88,0-1.61,.25-2.19,.75-.58,.49-.87,1.11-.87,1.85,0,1.02,.76,1.85,2.28,2.48l2.09,.86c1.7,.69,2.95,1.53,3.74,2.52s1.18,2.21,1.18,3.65c0,1.93-.64,3.53-1.93,4.79-1.3,1.27-2.91,1.9-4.83,1.9-1.82,0-3.33-.54-4.52-1.62-1.17-1.08-1.9-2.6-2.19-4.56l3.21-.71c.15,1.23,.4,2.09,.76,2.56,.65,.91,1.6,1.36,2.86,1.36,.99,0,1.81-.33,2.46-.99s.98-1.5,.98-2.52c0-.41-.06-.78-.17-1.12-.11-.34-.29-.65-.53-.94-.24-.29-.55-.55-.93-.8s-.83-.49-1.36-.71l-2.03-.84c-2.87-1.22-4.31-2.99-4.31-5.33,0-1.58,.6-2.9,1.81-3.96,1.21-1.07,2.71-1.6,4.5-1.6,2.42,0,4.31,1.18,5.67,3.54Z"/><path class="cls-1" d="M74.9,266v3.75c-1.83-1.53-3.73-2.3-5.69-2.3-2.16,0-3.98,.78-5.45,2.33-1.49,1.54-2.23,3.43-2.23,5.66s.74,4.06,2.23,5.58,3.31,2.27,5.47,2.27c1.12,0,2.06-.18,2.84-.54,.44-.18,.89-.43,1.35-.73,.47-.31,.96-.68,1.48-1.12v3.82c-1.81,1.02-3.72,1.54-5.71,1.54-3,0-5.56-1.05-7.68-3.14-2.11-2.11-3.17-4.66-3.17-7.64,0-2.67,.88-5.06,2.65-7.15,2.18-2.57,4.99-3.85,8.45-3.85,1.89,0,3.71,.51,5.47,1.54Z"/><path class="cls-1" d="M90.1,267.85h-8.42v5.05h8.17v2.98h-8.17v7.02h8.42v2.98h-11.59v-21h11.59v2.98Z"/><path class="cls-1" d="M93.87,285.87v-22.43l15.31,16.02v-14.59h3.17v22.28l-15.31-15.98v14.7h-3.17Z"/><path class="cls-1" d="M122.79,267.85v18.02h-3.17v-18.02h-4.83v-2.98h12.81v2.98h-4.81Z"/><path class="cls-1" d="M149.05,274.94h8.68v.69c0,1.58-.19,2.97-.56,4.19-.36,1.12-.98,2.18-1.84,3.16-1.95,2.19-4.43,3.29-7.44,3.29s-5.45-1.06-7.55-3.18c-2.09-2.13-3.14-4.69-3.14-7.67s1.06-5.63,3.2-7.75c2.13-2.13,4.72-3.2,7.78-3.2,1.64,0,3.17,.34,4.6,1.01,1.36,.67,2.7,1.76,4.01,3.26l-2.26,2.16c-1.72-2.29-3.82-3.44-6.3-3.44-2.22,0-4.08,.77-5.59,2.3-1.51,1.5-2.26,3.39-2.26,5.66s.84,4.27,2.52,5.78c1.57,1.41,3.27,2.11,5.1,2.11,1.56,0,2.96-.53,4.2-1.58,1.24-1.06,1.94-2.33,2.08-3.81h-5.24v-2.98Z"/><path class="cls-1" d="M164.49,264.87v18.02h6.17v2.98h-9.34v-21h3.17Z"/><path class="cls-1" d="M171.38,275.28c0-2.96,1.08-5.49,3.25-7.62,2.16-2.12,4.75-3.18,7.78-3.18s5.56,1.07,7.7,3.21c2.15,2.14,3.22,4.71,3.22,7.71s-1.08,5.58-3.24,7.68c-2.17,2.11-4.78,3.17-7.85,3.17-2.71,0-5.15-.94-7.3-2.82-2.38-2.08-3.56-4.8-3.56-8.16Zm3.2,.04c0,2.32,.78,4.23,2.34,5.73,1.55,1.5,3.34,2.24,5.37,2.24,2.2,0,4.06-.76,5.58-2.28,1.51-1.54,2.27-3.42,2.27-5.63s-.75-4.12-2.24-5.63c-1.49-1.52-3.33-2.28-5.52-2.28s-4.03,.76-5.54,2.28c-1.51,1.5-2.26,3.36-2.26,5.58Z"/><path class="cls-1" d="M196.92,285.87v-21h3.16c1.4,0,2.53,.11,3.36,.33,.84,.22,1.55,.58,2.14,1.1,.59,.54,1.06,1.2,1.4,2,.35,.81,.53,1.62,.53,2.45,0,1.5-.58,2.78-1.73,3.82,1.12,.38,2,1.05,2.64,2,.65,.94,.98,2.04,.98,3.29,0,1.64-.58,3.03-1.74,4.16-.7,.7-1.48,1.18-2.35,1.46-.95,.26-2.15,.39-3.58,.39h-4.8Zm3.17-11.98h.99c1.18,0,2.04-.26,2.59-.78,.55-.52,.82-1.29,.82-2.31s-.28-1.74-.84-2.25-1.38-.77-2.45-.77h-1.12v6.11Zm0,9h1.96c1.43,0,2.49-.28,3.16-.84,.71-.61,1.06-1.38,1.06-2.31s-.34-1.67-1.02-2.28c-.66-.61-1.85-.91-3.55-.91h-1.6v6.35Z"/><path class="cls-1" d="M225.03,280.77h-8.99l-2.34,5.1h-3.41l10.39-22.32,10.02,22.32h-3.47l-2.2-5.1Zm-1.29-2.98l-3.11-7.14-3.26,7.14h6.38Z"/><path class="cls-1" d="M236.1,264.87v18.02h6.17v2.98h-9.34v-21h3.17Z"/></g></g></g></svg>