<?xml version="1.0" encoding="UTF-8"?><svg id="Layer_2" xmlns="http://www.w3.org/2000/svg" viewBox="0 0 242.28 246.4"><defs><style>.cls-1{fill:#AF9B4F;}</style></defs><g id="Layer_1-2"><path class="cls-1" d="M240.07,147.41h-51.29c-1.1,0-2.21,.83-2.21,2.2v3.03c0,.83,.55,1.93,1.66,2.2,11.03,3.31,12.41,7.17,12.41,20.4v44.94c-8.82,7.17-20.13,12.13-36.12,12.13-43.02,0-73.62-37.5-73.62-86.58,0-7.44,.65-14.6,1.88-21.4l55.56,66.72c1.65,2.48,4.41,3.58,7.17,3.58,2.48,0,4.96-1.1,4.96-5.24V59.22c.52-.01,1.04-.04,1.57-.04,29.23,0,47.42,25.92,56.52,47.42,.28,.83,1.1,1.38,2.2,1.38h2.48c1.1,0,1.65-.55,1.65-2.21-.28-1.38-3.03-27.85-4.41-40.81-.28-2.48-1.93-4.69-4.13-6.07-14.34-9.1-35.29-13.79-54.32-13.79-.53,0-1.04,.03-1.57,.03V19.58c0-6.89,1.66-9.65,9.93-12.13,1.1-.28,1.65-1.38,1.65-2.21V2.21c0-1.38-1.1-2.21-2.21-2.21h-36.12c-1.38,0-2.2,.83-2.2,2.21v3.03c0,.83,.55,1.93,1.38,2.21,8.55,2.48,9.93,5.24,10.2,12.13v26.95c-21.37,3.19-39.79,11.83-53.93,24.83L34.47,3.31c-1.65-2.21-4.41-3.31-7.17-3.31H2.21C.83,0,0,.83,0,2.21v3.03c0,.83,.55,1.93,1.38,2.21,8.55,2.48,9.93,5.24,10.2,12.13V173.16c-.28,6.89-1.66,9.93-10.2,12.41-.83,.28-1.38,1.1-1.38,2.21v2.76c0,1.38,.83,2.48,2.21,2.48H38.32c1.1,0,2.21-1.1,2.21-2.48v-2.76c0-1.1-.55-1.93-1.65-2.21-8.27-2.48-9.65-5.51-9.93-12.41V47.7l40.89,49.1c-7.22,14.08-11.2,30.58-11.2,48.96,0,60.39,45.22,100.64,105.88,100.64,28.12,0,48.53-9.1,63.42-18.47,2.2-1.38,2.76-3.31,2.76-6.07v-54.87c.28-6.89,1.65-9.65,9.93-12.13,1.1-.28,1.66-1.38,1.66-2.2v-3.03c0-1.38-.83-2.2-2.21-2.2ZM143.1,61.79v76.63l-37.91-47.15c9.02-14.44,21.97-24.88,37.91-29.48Z"/></g></svg>