<svg xmlns="http://www.w3.org/2000/svg" id="Layer_1" data-name="Layer 1" viewBox="0 0 167.26 54.96"><defs><style>.cls-1{fill:#fff}</style></defs><path d="M50.06 33.91c0-.16-.01-.32-.01-.48 0-.38 0-.76.02-1.14 3.24-2.07 6.8-3.62 10.28-4.78-.18 1.89-.27 3.87-.27 5.92v.48h.54c0-.16-.01-.32-.01-.48 0-2.12.1-4.16.29-6.1 3.87-1.24 7.61-2.01 10.66-2.48 1.02-.16 1.99-.29 2.91-.39-.17 2.79-.25 5.78-.25 8.97v.48h.53v-.48c0-3.21.09-6.23.26-9.03 4.68-.51 11.2-.51 15.88 0 .17 2.8.26 5.82.26 9.03v.48h.53v-.48c0-3.19-.08-6.18-.25-8.97.92.11 1.89.24 2.9.39 3.05.47 6.8 1.24 10.67 2.48.19 1.94.29 3.98.29 6.1 0 .17-.01.32-.01.48h.54v-.48c0-2.06-.09-4.03-.27-5.92 3.48 1.16 7.04 2.7 10.28 4.78.01.38.02.76.02 1.14 0 .16 0 .32-.01.48h.53c0-.16.01-.32.01-.48 0-4.51-.88-8.89-2.63-13.01a33.229 33.229 0 0 0-7.16-10.62 33.229 33.229 0 0 0-10.62-7.16C91.85.9 87.47.01 82.96.01s-8.89.88-13.01 2.63A33.229 33.229 0 0 0 59.33 9.8a33.229 33.229 0 0 0-7.16 10.62c-1.74 4.12-2.63 8.5-2.63 13.01 0 .16 0 .32.01.48h.53Zm24.44-9.99c-.96.11-1.97.24-3.02.4-3.73.57-7.27 1.39-10.53 2.42.51-4.58 1.56-8.63 3.15-12.11.39-.86.82-1.69 1.28-2.49 3.39-.84 6.46-1.33 8.9-1.6.77-.09 1.5-.16 2.19-.22-.35 1.34-.66 2.8-.93 4.37-.47 2.74-.82 5.82-1.04 9.22Zm.54-.06c.22-3.29.55-6.27 1-8.94.28-1.67.62-3.22.99-4.64 3.59-.27 8.23-.27 11.82 0 .38 1.42.71 2.96.99 4.64.45 2.66.79 5.65 1 8.94-4.59-.5-11.23-.5-15.81 0Zm19.36.46c-1.05-.16-2.06-.29-3.02-.4-.22-3.4-.57-6.48-1.04-9.22-.27-1.57-.58-3.02-.93-4.37.69.06 1.42.13 2.19.22 2.44.28 5.51.76 8.9 1.6.46.79.88 1.61 1.27 2.47 1.59 3.48 2.65 7.54 3.15 12.13-3.26-1.03-6.8-1.85-10.53-2.42Zm18.85-3.7c1.48 3.51 2.33 7.2 2.54 11.01-2.98-1.86-6.45-3.45-10.31-4.72-.5-4.74-1.58-8.94-3.22-12.53-.33-.71-.67-1.4-1.04-2.07 2.97.77 6.16 1.82 9.36 3.24 1.03 1.6 1.93 3.29 2.68 5.06Zm-17.5-17.5a32.94 32.94 0 0 1 10.46 7.05 32.56 32.56 0 0 1 3.82 4.58 62.587 62.587 0 0 0-9.18-3.07c-1.72-2.92-3.88-5.35-6.44-7.27A23.456 23.456 0 0 0 87.25.8c2.92.38 5.77 1.15 8.5 2.31Zm-1.66 1.73c2.37 1.77 4.39 4 6.03 6.66a70.052 70.052 0 0 0-10.85-1.72c-.53-1.94-1.15-3.64-1.86-5.06C86.31 2.5 85.2 1.32 84.37.7c2.02.32 5.88 1.29 9.72 4.15ZM82.95.54c.13.03.59.17 1.23.67.7.55 1.76 1.68 2.83 3.87.64 1.32 1.21 2.88 1.71 4.65-3.38-.24-8.15-.24-11.53 0 .5-1.78 1.07-3.33 1.71-4.65 1.06-2.2 2.12-3.32 2.83-3.87.64-.51 1.1-.64 1.23-.67Zm-4.47 4.19c-.7 1.42-1.32 3.11-1.86 5.06-.74.06-1.54.13-2.38.23-2.33.27-5.25.72-8.47 1.49 1.63-2.65 3.65-4.88 6.01-6.64C75.62 2 79.49 1.03 81.52.7c-.83.62-1.94 1.8-3.04 4.03Zm-18.79 5.44a32.83 32.83 0 0 1 10.46-7.05c2.73-1.16 5.58-1.93 8.5-2.31a23.23 23.23 0 0 0-7.16 3.61c-2.56 1.91-4.72 4.35-6.44 7.27-2.9.73-6.03 1.72-9.18 3.07 1.13-1.63 2.4-3.16 3.82-4.58Zm-7.05 10.46c.75-1.77 1.64-3.46 2.68-5.06 3.2-1.42 6.39-2.47 9.36-3.24-.37.67-.72 1.35-1.04 2.07-1.64 3.59-2.72 7.79-3.22 12.53-3.86 1.27-7.33 2.85-10.31 4.72.2-3.81 1.05-7.51 2.54-11.01Z" style="fill:#af9b4f"/><path d="M0 54.09V38.92l10.36 10.83v-9.87h2.14v15.07L2.14 44.15v9.94H0ZM24.35 50.64h-6.08l-1.58 3.45h-2.31L21.41 39l6.78 15.09h-2.35l-1.49-3.45Zm-.87-2.01-2.11-4.83-2.21 4.83h4.31ZM37.99 42.01l-1.74 1.03c-.33-.56-.63-.93-.93-1.1-.31-.2-.7-.29-1.19-.29-.59 0-1.09.17-1.48.51-.39.33-.59.75-.59 1.25 0 .69.52 1.25 1.55 1.67l1.42.58c1.15.47 2 1.03 2.53 1.71s.8 1.49.8 2.47c0 1.31-.44 2.39-1.31 3.24-.88.86-1.97 1.29-3.27 1.29-1.23 0-2.25-.36-3.05-1.09-.79-.73-1.28-1.76-1.48-3.08l2.17-.48c.1.83.27 1.41.52 1.73.44.61 1.09.92 1.93.92.67 0 1.22-.22 1.66-.67.44-.45.66-1.01.66-1.7 0-.28-.04-.53-.11-.76-.08-.23-.2-.44-.36-.63-.16-.19-.37-.37-.63-.54-.26-.17-.56-.33-.92-.48l-1.37-.57c-1.94-.82-2.92-2.02-2.92-3.61 0-1.07.41-1.96 1.22-2.68.82-.72 1.83-1.09 3.04-1.09 1.64 0 2.92.8 3.84 2.39ZM51.44 40.65v2.54c-1.24-1.04-2.52-1.55-3.84-1.55-1.46 0-2.69.52-3.69 1.57-1.01 1.04-1.51 2.32-1.51 3.83s.5 2.75 1.51 3.77 2.24 1.54 3.7 1.54c.75 0 1.39-.12 1.92-.37.29-.12.6-.29.92-.5.32-.21.65-.46 1-.75v2.58c-1.23.69-2.51 1.04-3.86 1.04-2.03 0-3.76-.71-5.2-2.12-1.43-1.43-2.14-3.15-2.14-5.17 0-1.81.6-3.42 1.79-4.84 1.47-1.74 3.38-2.6 5.71-2.6 1.28 0 2.51.35 3.7 1.04ZM61.98 41.9h-5.69v3.41h5.53v2.01h-5.53v4.75h5.69v2.01h-7.84v-14.2h7.84v2.01ZM64.79 54.09V38.92l10.36 10.83v-9.87h2.14v15.07L66.93 44.14v9.94h-2.14ZM84.61 41.9v12.19h-2.14V41.9h-3.26v-2.01h8.66v2.01h-3.26ZM102.9 46.7h5.87v.47c0 1.07-.13 2.01-.38 2.83-.25.76-.66 1.47-1.24 2.13-1.32 1.48-3 2.23-5.03 2.23s-3.69-.72-5.1-2.15c-1.42-1.44-2.12-3.17-2.12-5.19s.72-3.81 2.16-5.24c1.44-1.44 3.19-2.16 5.26-2.16 1.11 0 2.15.23 3.11.68.92.45 1.82 1.19 2.71 2.21l-1.53 1.46c-1.17-1.55-2.58-2.33-4.26-2.33-1.5 0-2.76.52-3.78 1.55-1.02 1.02-1.53 2.29-1.53 3.83s.57 2.88 1.7 3.91c1.06.95 2.21 1.43 3.45 1.43 1.05 0 2-.36 2.84-1.07.84-.72 1.31-1.58 1.41-2.58h-3.54V46.7ZM113.6 39.89v12.19h4.18v2.01h-6.32v-14.2h2.14ZM118.53 46.93c0-2 .73-3.72 2.2-5.15 1.46-1.43 3.21-2.15 5.26-2.15s3.76.72 5.21 2.17c1.45 1.45 2.18 3.19 2.18 5.22s-.73 3.77-2.19 5.2c-1.47 1.43-3.23 2.14-5.31 2.14-1.83 0-3.48-.63-4.94-1.9-1.61-1.4-2.41-3.24-2.41-5.52Zm2.16.03c0 1.57.53 2.86 1.58 3.87 1.05 1.01 2.26 1.52 3.63 1.52 1.49 0 2.75-.51 3.77-1.54 1.02-1.04 1.54-2.31 1.54-3.81s-.51-2.78-1.52-3.81c-1.01-1.03-2.25-1.55-3.73-1.55s-2.73.51-3.74 1.55c-1.02 1.02-1.53 2.27-1.53 3.77ZM136.06 54.09v-14.2h2.13c.95 0 1.71.07 2.27.22.57.15 1.05.4 1.44.75.4.36.71.81.95 1.35.24.55.36 1.1.36 1.66 0 1.02-.39 1.88-1.17 2.58.75.26 1.35.71 1.78 1.35.44.64.66 1.38.66 2.23 0 1.11-.39 2.05-1.18 2.81-.47.47-1 .8-1.59.98-.64.18-1.45.27-2.42.27h-3.25Zm2.14-8.1h.67c.8 0 1.38-.18 1.75-.53.37-.35.56-.87.56-1.56s-.19-1.18-.57-1.52c-.38-.35-.93-.52-1.66-.52h-.75v4.13Zm0 6.09h1.32c.97 0 1.68-.19 2.13-.57.48-.41.72-.93.72-1.56s-.23-1.13-.69-1.54c-.45-.41-1.25-.62-2.4-.62h-1.09v4.29ZM155.33 50.64h-6.08l-1.58 3.45h-2.31L152.39 39l6.78 15.09h-2.35l-1.49-3.45Zm-.87-2.01-2.11-4.83-2.21 4.83h4.31ZM163.09 39.89v12.19h4.18v2.01h-6.32v-14.2h2.14Z" class="cls-1"/></svg>