<?xml version="1.0" encoding="UTF-8"?>
<svg id="icons" xmlns="http://www.w3.org/2000/svg" viewBox="0 0 250.69 246.68">
  <path d="M68.88,44.32c-12.22,0-22.16-9.94-22.16-22.16S56.67,0,68.88,0s22.16,9.94,22.16,22.16-9.94,22.16-22.16,22.16Zm0-36.46c-7.88,0-14.3,6.42-14.3,14.3s6.42,14.3,14.3,14.3,14.3-6.42,14.3-14.3-6.42-14.3-14.3-14.3Z"/>
  <path d="M180.87,44.32c-12.22,0-22.16-9.94-22.16-22.16S168.65,0,180.87,0s22.16,9.94,22.16,22.16-9.94,22.16-22.16,22.16Zm0-36.46c-7.88,0-14.3,6.42-14.3,14.3s6.42,14.3,14.3,14.3,14.3-6.42,14.3-14.3-6.42-14.3-14.3-14.3Z"/>
  <path d="M32.55,107.7c-2.17,0-3.93-1.76-3.93-3.93v-34.6c0-9.91,8.06-17.97,17.97-17.97h44.58c9.91,0,17.97,8.06,17.97,17.97v11.97c0,2.17-1.76,3.93-3.93,3.93s-3.93-1.76-3.93-3.93v-11.97c0-5.58-4.54-10.12-10.12-10.12H46.6c-5.58,0-10.12,4.54-10.12,10.12v34.6c0,2.17-1.76,3.93-3.93,3.93Z"/>
  <path d="M217.2,107.15c-2.17,0-3.93-1.76-3.93-3.93v-34.05c0-5.58-4.54-10.12-10.12-10.12h-44.58c-5.58,0-10.11,4.54-10.11,10.12v11.88c0,2.17-1.76,3.93-3.93,3.93s-3.93-1.76-3.93-3.93v-11.88c0-9.91,8.06-17.97,17.97-17.97h44.58c9.91,0,17.97,8.06,17.97,17.97v34.05c0,2.17-1.76,3.93-3.93,3.93Z"/>
  <path d="M125.35,246.68c-6.43,0-13.14-.37-20.53-1.12-2-.21-3.53-1.89-3.53-3.91v-43.24c0-5.58-4.54-10.12-10.12-10.12H46.6c-5.58,0-10.12,4.54-10.12,10.12v18.03c0,1.48-.83,2.83-2.14,3.5-1.31,.67-2.89,.55-4.09-.31C10.74,205.54,0,187.49,0,168.8c0-21.18,13.3-40.94,37.45-55.65,23.54-14.34,54.76-22.23,87.9-22.23s64.36,7.9,87.9,22.23c24.15,14.71,37.45,34.47,37.45,55.65,0,19-11.09,37.28-31.23,51.48-1.2,.85-2.77,.95-4.07,.28-1.3-.68-2.12-2.02-2.12-3.49v-18.66c0-5.58-4.54-10.12-10.12-10.12h-44.58c-5.58,0-10.11,4.54-10.11,10.12v43.33c0,2.02-1.54,3.72-3.55,3.91-7.15,.69-13.55,1.03-19.57,1.03Zm-16.2-8.6c5.75,.5,11.08,.75,16.2,.75,4.75,0,9.77-.22,15.26-.67v-39.74c0-9.91,8.06-17.97,17.97-17.97h44.58c9.91,0,17.97,8.06,17.97,17.97v10.69c14.06-11.82,21.71-25.91,21.71-40.3,0-38.61-52.71-70.02-117.49-70.02S7.86,130.19,7.86,168.8c0,14.07,7.31,27.89,20.77,39.54v-9.93c0-9.91,8.06-17.97,17.97-17.97h44.58c9.91,0,17.97,8.06,17.97,17.97v39.67Zm71.72-64.52c-12.22,0-22.16-9.94-22.16-22.16s9.94-22.16,22.16-22.16,22.16,9.94,22.16,22.16-9.94,22.16-22.16,22.16Zm0-36.46c-7.88,0-14.3,6.42-14.3,14.3s6.42,14.3,14.3,14.3,14.3-6.42,14.3-14.3-6.42-14.3-14.3-14.3Zm-111.98,36.46c-12.22,0-22.16-9.94-22.16-22.16s9.94-22.16,22.16-22.16,22.16,9.94,22.16,22.16-9.94,22.16-22.16,22.16Zm0-36.46c-7.88,0-14.3,6.42-14.3,14.3s6.42,14.3,14.3,14.3,14.3-6.42,14.3-14.3-6.42-14.3-14.3-14.3Z"/>
</svg>