<?xml version="1.0" encoding="UTF-8"?><svg id="Layer_2" xmlns="http://www.w3.org/2000/svg" viewBox="0 0 250.69 246.68"><defs><style>.cls-1{fill:#fff;stroke:#2e2d2c;stroke-linecap:round;stroke-linejoin:round;stroke-width:7.86px;}</style></defs><g id="icons"><g><circle class="cls-1" cx="68.88" cy="22.16" r="18.23" transform="translate(4.51 55.2) rotate(-45)"/><circle class="cls-1" cx="180.87" cy="22.16" r="18.23" transform="translate(37.31 134.38) rotate(-45)"/><g><path class="cls-1" d="M105.22,81.14v-11.97c0-7.76-6.29-14.04-14.04-14.04H46.6c-7.76,0-14.04,6.29-14.04,14.04v34.6"/><path class="cls-1" d="M217.2,103.22v-34.05c0-7.76-6.29-14.04-14.04-14.04h-44.58c-7.76,0-14.04,6.29-14.04,14.04v11.88"/></g><path class="cls-1" d="M246.77,168.8c0-40.84-54.36-73.95-121.42-73.95S3.93,127.96,3.93,168.8c0,18.16,10.79,34.77,28.62,47.64v-18.03c0-7.76,6.29-14.04,14.04-14.04h44.58c7.76,0,14.04,6.29,14.04,14.04v43.24c6.56,.67,13.26,1.1,20.13,1.1s12.92-.4,19.19-1.01v-43.33c0-7.76,6.29-14.04,14.04-14.04h44.58c7.76,0,14.04,6.29,14.04,14.04v18.66c18.38-12.96,29.57-29.8,29.57-48.27Zm-177.88,.82c-10.07,0-18.23-8.16-18.23-18.23s8.16-18.23,18.23-18.23,18.23,8.16,18.23,18.23-8.16,18.23-18.23,18.23Zm111.98,0c-10.07,0-18.23-8.16-18.23-18.23s8.16-18.23,18.23-18.23,18.23,8.16,18.23,18.23-8.16,18.23-18.23,18.23Z"/></g></g></svg>